<svg width="24" height="24" viewBox="0 0 24 24" fill="none" xmlns="http://www.w3.org/2000/svg">
<path d="M4.285 8.344C3.70091 8.50127 3.18497 8.84674 2.81708 9.32689C2.44919 9.80705 2.24987 10.3951 2.25 11V14C2.25 14.7293 2.53973 15.4288 3.05546 15.9445C3.57118 16.4603 4.27065 16.75 5 16.75H7.5C7.69891 16.75 7.88968 16.671 8.03033 16.5303C8.17098 16.3897 8.25 16.1989 8.25 16V9C8.25 8.80109 8.17098 8.61032 8.03033 8.46967C7.88968 8.32902 7.69891 8.25 7.5 8.25H5.815C6.244 5.78 8.759 3.75 12 3.75C15.241 3.75 17.756 5.78 18.185 8.25H16.5C16.3011 8.25 16.1103 8.32902 15.9697 8.46967C15.829 8.61032 15.75 8.80109 15.75 9V16C15.75 16.414 16.086 16.75 16.5 16.75H18.163C17.9942 17.4619 17.59 18.096 17.016 18.5497C16.442 19.0034 15.7317 19.2502 15 19.25H13.855C13.6809 18.8197 13.3627 18.4634 12.9547 18.2421C12.5467 18.0207 12.0745 17.9482 11.6189 18.0368C11.1633 18.1255 10.7528 18.3698 10.4576 18.728C10.1624 19.0862 10.001 19.5359 10.001 20C10.001 20.4641 10.1624 20.9138 10.4576 21.272C10.7528 21.6302 11.1633 21.8745 11.6189 21.9632C12.0745 22.0518 12.5467 21.9793 12.9547 21.7579C13.3627 21.5366 13.6809 21.1803 13.855 20.75H15C17.4 20.75 19.384 18.97 19.705 16.659C20.2914 16.5035 20.81 16.1583 21.1799 15.6774C21.5497 15.1965 21.7502 14.6067 21.75 14V11C21.7501 10.3951 21.5508 9.80705 21.1829 9.32689C20.815 8.84674 20.2991 8.50127 19.715 8.344C19.333 4.84 15.926 2.25 12 2.25C8.074 2.25 4.667 4.84 4.285 8.344Z" fill="white"/>
</svg>
